<svg xmlns="http://www.w3.org/2000/svg" xmlns:xlink="http://www.w3.org/1999/xlink" xmlns:lucid="lucid" width="360" height="80"><g transform="translate(0 0)" lucid:page-tab-id="ZvGThW~sRZKF"><path d="M0 0h360v80H0z"/><path d="M0 0h360v80H0z" stroke="#fff" stroke-width="5"/><path d="M0 28a8 8 0 0 1 8-8h344a8 8 0 0 1 8 8v32a8 8 0 0 1-8 8H8a8 8 0 0 1-8-8z" fill="none"/><use xlink:href="#a" transform="matrix(1,0,0,1,2.842170943040401e-14,20) translate(52.64594184027797 35.33582899305551)"/><defs><path fill="#fff" d="M622-916c-112 2-200 14-200 111 0 90 89 101 168 121 234 58 514 77 514 368C1104-4 751 54 434 5 267-21 161-112 121-270l247-37c24 111 113 145 252 141 114-3 226-12 226-124 0-101-103-113-192-134-225-54-490-76-490-351 0-247 201-328 458-328 245 0 413 88 457 292l-249 26c-16-98-92-133-208-131" id="b"/><path fill="#fff" d="M1109-360C1066-122 902 20 624 20c-347 0-514-209-514-555 0-353 168-567 518-567 270 0 425 136 473 361l-283 14c-16-106-75-183-196-182-75 0-130 31-165 93s-52 152-52 270c0 249 74 374 221 374 120 0 188-82 201-201" id="c"/><path fill="#fff" d="M775-193C708-75 621 20 439 20 226 20 106-93 106-306c0-251 170-341 417-346l223-4c4-143-12-264-148-264-103 0-141 58-150 153l-293-14c37-219 194-321 455-321 263 0 418 130 417 390v392c1 84 5 161 89 160 21 0 42-2 62-6v152c-57 15-108 27-180 26-145 0-202-73-217-205h-6zm-256 17c168 0 234-139 227-325-166 4-347-25-347 173 0 94 33 152 120 152" id="d"/><path fill="#fff" d="M768-1103c247 0 336 167 336 416V0H824v-619c-3-164-24-273-171-273-164 0-229 142-229 312V0H143c-4-359 9-736-8-1082h268c7 63 12 146 13 215h4c67-145 160-236 348-236" id="e"/><path fill="#fff" d="M875-1102c70 0 148 7 206 17v237c-110-17-267-37-359 15-123 69-192 207-192 395V0H250c-10-367 32-789-52-1082h271c19 69 36 149 46 228h4c52-151 151-250 356-248" id="f"/><path fill="#fff" d="M1113-274C1038-96 884 20 626 20c-352 0-526-209-526-566 0-358 185-556 530-556 358 0 496 251 499 615H395c5 180 68 319 245 319 102 0 186-45 208-129zM857-663c-6-177-128-307-315-247-94 30-141 121-145 247h460" id="g"/><path fill="#fff" d="M802-909c-3-189-2-383-2-575h281v1248c-1 83 4 168 8 236H817c-9-50-14-117-15-176h-4C735-49 651 20 482 20 191 20 97-238 97-539c0-243 66-432 221-519 50-28 108-42 175-42 162 2 253 78 309 191zm-70 658c91-113 93-462 2-584-46-61-145-100-224-53-96 56-119 190-120 349 0 123 17 214 52 275 46 82 130 115 222 74 25-12 46-33 68-61" id="h"/><g id="a"><use transform="matrix(0.02072482638888886,0,0,0.02072482638888886,0,0)" xlink:href="#b"/><use transform="matrix(0.02072482638888886,0,0,0.02072482638888886,25.47081163194441,0)" xlink:href="#c"/><use transform="matrix(0.02072482638888886,0,0,0.02072482638888886,50.94162326388882,0)" xlink:href="#d"/><use transform="matrix(0.02072482638888886,0,0,0.02072482638888886,76.41243489583323,0)" xlink:href="#e"/><use transform="matrix(0.02072482638888886,0,0,0.02072482638888886,101.88324652777764,0)" xlink:href="#f"/><use transform="matrix(0.02072482638888886,0,0,0.02072482638888886,127.35405815972207,0)" xlink:href="#g"/><use transform="matrix(0.02072482638888886,0,0,0.02072482638888886,152.82486979166646,0)" xlink:href="#d"/><use transform="matrix(0.02072482638888886,0,0,0.02072482638888886,178.29568142361086,0)" xlink:href="#h"/><use transform="matrix(0.02072482638888886,0,0,0.02072482638888886,203.7664930555553,0)" xlink:href="#g"/><use transform="matrix(0.02072482638888886,0,0,0.02072482638888886,229.23730468749966,0)" xlink:href="#f"/></g></defs></g></svg>